<svg class="logo-img" version="1.1" id="Layer_1" xmlns="http://www.w3.org/2000/svg" xmlns:xlink="http://www.w3.org/1999/xlink" x="0px" y="0px" viewBox="0 0 343.88 220.35" style="enable-background:new 0 0 343.88 220.35;" xml:space="preserve" width="343.88" height="220.35"><style type="text/css">.st-lh-st-logo{fill:#2A2A2A;}</style><g><path class="st-lh-st-logo" d="M0,54.35V166.1h343.88V54.35H0z M71.46,141.92H25.1V77.41h14.19v51.61h32.16V141.92z M136.6,141.92h-14.19v-25.9H96.24v25.9H82.05V77.41h14.19v25.53h26.17V77.41h14.19V141.92z M197.38,115.84H180.7v16.59h-13.09v-16.59h-16.68v-12.72h16.68V86.53h13.09v16.59h16.68V115.84z M256.92,122.84c0,12.81-9.77,20-23.68,20c-9.77,0-19.63-3.41-27.37-10.32l8.39-10.05c5.81,4.79,11.89,7.83,19.26,7.83c5.81,0,9.31-2.3,9.31-6.08v-0.18c0-3.59-2.21-5.44-12.99-8.2c-12.99-3.32-21.38-6.91-21.38-19.72v-0.18c0-11.7,9.4-19.44,22.58-19.44c9.4,0,17.42,2.95,23.96,8.2l-7.37,10.69c-5.71-3.96-11.34-6.36-16.77-6.36c-5.44,0-8.29,2.49-8.29,5.62v0.18c0,4.24,2.76,5.62,13.91,8.48c13.09,3.41,20.46,8.11,20.46,19.35V122.84z M318.58,90.49h-19.63v51.42h-14.19V90.49h-19.63V77.41h53.45V90.49z"></path><g><path class="st-lh-st-logo" d="M52.27,18.43h2.37v18.85h11.85v2.2H52.27V18.43z"></path><path class="st-lh-st-logo" d="M71.42,18.43h2.38v21.05h-2.38V18.43z"></path><path class="st-lh-st-logo" d="M80.73,18.43h2.22L96.22,35.3V18.43h2.32v21.05h-1.89L83.05,22.22v17.26h-2.32V18.43z"></path><path class="st-lh-st-logo" d="M104.34,29.02v-0.06c0-5.95,4.45-10.88,10.64-10.88c3.82,0,6.1,1.35,8.21,3.34l-1.62,1.74c-1.77-1.68-3.76-2.89-6.62-2.89c-4.66,0-8.15,3.79-8.15,8.63v0.06c0,4.87,3.52,8.69,8.15,8.69c2.89,0,4.78-1.11,6.8-3.04l1.56,1.53c-2.2,2.23-4.6,3.7-8.42,3.7C108.82,39.84,104.34,35.06,104.34,29.02z"></path><path class="st-lh-st-logo" d="M126.64,29.02v-0.06c0-5.8,4.36-10.88,10.76-10.88s10.7,5.02,10.7,10.82v0.06c0,5.8-4.36,10.89-10.77,10.89C130.94,39.84,126.64,34.82,126.64,29.02z M145.65,29.02v-0.06c0-4.78-3.49-8.69-8.3-8.69c-4.81,0-8.24,3.85-8.24,8.63v0.06c0,4.78,3.49,8.69,8.3,8.69S145.65,33.8,145.65,29.02z"></path><path class="st-lh-st-logo" d="M153.94,18.43h2.37v18.85h11.85v2.2h-14.22V18.43z"></path><path class="st-lh-st-logo" d="M172.99,18.43h2.22l13.26,16.87V18.43h2.32v21.05h-1.89L175.3,22.22v17.26h-2.31V18.43z"></path><path class="st-lh-st-logo" d="M207.26,18.43h2.38v9.35h12.15v-9.35h2.38v21.05h-2.38v-9.47h-12.15v9.47h-2.38V18.43z"></path><path class="st-lh-st-logo" d="M238.46,18.28h2.23l9.59,21.2h-2.56l-2.47-5.56H233.8l-2.5,5.56h-2.44L238.46,18.28z M244.32,31.75l-4.78-10.7l-4.81,10.7H244.32z"></path><path class="st-lh-st-logo" d="M255,18.43h2.37v18.85h11.85v2.2H255V18.43z"></path><path class="st-lh-st-logo" d="M274.04,18.43h2.38v18.85h11.85v2.2h-14.22V18.43z"></path></g><g><path class="st-lh-st-logo" d="M23.3,200.01l1.47-1.74c2.2,1.98,4.3,2.98,7.22,2.98c2.83,0,4.69-1.5,4.69-3.58v-0.06c0-1.96-1.05-3.07-5.47-4c-4.84-1.05-7.07-2.62-7.07-6.07v-0.06c0-3.31,2.92-5.74,6.92-5.74c3.07,0,5.26,0.87,7.4,2.59l-1.38,1.83c-1.95-1.59-3.91-2.29-6.07-2.29c-2.74,0-4.48,1.5-4.48,3.4v0.06c0,1.98,1.08,3.1,5.71,4.09c4.69,1.02,6.86,2.74,6.86,5.95v0.06c0,3.61-3.01,5.95-7.19,5.95C28.56,203.37,25.83,202.26,23.3,200.01z"></path><path class="st-lh-st-logo" d="M43.43,192.61v-0.06c0-5.95,4.45-10.89,10.64-10.89c3.82,0,6.1,1.35,8.21,3.34l-1.62,1.74c-1.77-1.68-3.76-2.89-6.62-2.89c-4.66,0-8.15,3.79-8.15,8.63v0.06c0,4.87,3.52,8.69,8.15,8.69c2.89,0,4.78-1.11,6.8-3.04l1.56,1.53c-2.2,2.23-4.6,3.7-8.42,3.7C47.91,203.43,43.43,198.65,43.43,192.61z"></path><path class="st-lh-st-logo" d="M67.29,182.03h2.37v9.35h12.15v-9.35h2.38v21.05h-2.38v-9.47H69.66v9.47h-2.37V182.03z"></path><path class="st-lh-st-logo" d="M90.83,194.26v-12.24h2.37v12.09c0,4.54,2.44,7.1,6.43,7.1c3.88,0,6.34-2.35,6.34-6.95v-12.24h2.38v12.06c0,6.13-3.52,9.32-8.78,9.32C94.38,203.4,90.83,200.22,90.83,194.26z"></path><path class="st-lh-st-logo" d="M115,182.03h8.96c2.41,0,4.3,0.69,5.5,1.86c0.87,0.9,1.35,2.01,1.35,3.37v0.06c0,2.74-1.68,4.15-3.34,4.87c2.5,0.75,4.51,2.19,4.51,5.08v0.06c0,3.61-3.04,5.74-7.64,5.74H115V182.03z M128.41,187.59c0-2.07-1.65-3.43-4.66-3.43h-6.4v7.25h6.22c2.86,0,4.84-1.29,4.84-3.76V187.59z M123.99,193.51h-6.65v7.43h7.07c3.19,0,5.17-1.41,5.17-3.76v-0.06C129.59,194.83,127.66,193.51,123.99,193.51z"></path><path class="st-lh-st-logo" d="M144.78,181.87h2.23l9.59,21.2h-2.56l-2.47-5.56h-11.46l-2.5,5.56h-2.44L144.78,181.87z M150.65,195.35l-4.78-10.7l-4.81,10.7H150.65z"></path><path class="st-lh-st-logo" d="M160.05,200.01l1.47-1.74c2.2,1.98,4.3,2.98,7.22,2.98c2.83,0,4.69-1.5,4.69-3.58v-0.06c0-1.96-1.05-3.07-5.47-4c-4.84-1.05-7.07-2.62-7.07-6.07v-0.06c0-3.31,2.92-5.74,6.92-5.74c3.07,0,5.26,0.87,7.4,2.59l-1.38,1.83c-1.95-1.59-3.91-2.29-6.07-2.29c-2.74,0-4.48,1.5-4.48,3.4v0.06c0,1.98,1.08,3.1,5.71,4.09c4.69,1.02,6.86,2.74,6.86,5.95v0.06c0,3.61-3.01,5.95-7.19,5.95C165.31,203.37,162.57,202.26,160.05,200.01z"></path><path class="st-lh-st-logo" d="M196.76,184.22h-7.07v-2.19h16.54v2.19h-7.07v18.85h-2.4V184.22z"></path><path class="st-lh-st-logo" d="M216.16,181.87h2.23l9.59,21.2h-2.56l-2.47-5.56H211.5l-2.5,5.56h-2.44L216.16,181.87z M222.02,195.35l-4.78-10.7l-4.81,10.7H222.02z"></path><path class="st-lh-st-logo" d="M228.46,182.03h2.65l7.49,18.13l7.52-18.13h2.56l-9.05,21.2h-2.1L228.46,182.03z"></path><path class="st-lh-st-logo" d="M253.39,182.03h15.21v2.17h-12.84v7.19h11.49v2.17h-11.49v7.37h12.99v2.17h-15.36V182.03z"></path><path class="st-lh-st-logo" d="M273.95,182.03H283c2.59,0,4.66,0.78,5.98,2.11c1.02,1.02,1.62,2.5,1.62,4.15v0.06c0,3.49-2.4,5.53-5.71,6.13l6.46,8.6h-2.92l-6.1-8.18h-6.01v8.18h-2.37V182.03z M282.79,192.76c3.16,0,5.41-1.62,5.41-4.33v-0.06c0-2.59-1.98-4.15-5.38-4.15h-6.5v8.54H282.79z"></path><path class="st-lh-st-logo" d="M296.49,182.03h2.22l13.26,16.87v-16.87h2.32v21.05h-1.89l-13.59-17.26v17.26h-2.31V182.03z"></path></g><g><rect class="st-lh-st-logo" width="343.88" height="2.5"></rect></g><g><rect y="217.84" class="st-lh-st-logo" width="343.88" height="2.5"></rect></g></g></svg>
