<svg xmlns="http://www.w3.org/2000/svg" xmlns:xlink="http://www.w3.org/1999/xlink" viewBox="0 0 195.6 46.8"><defs><linearGradient id="a" y1="23.4" x2="195.6" y2="23.4" gradientUnits="userSpaceOnUse"><stop offset="0" stop-color="#5478a8"/><stop offset="0.33" stop-color="#5478a8"/><stop offset="0.46" stop-color="#566d9e"/><stop offset="0.79" stop-color="#5a568a"/><stop offset="1" stop-color="#5c4d82"/></linearGradient></defs><title>linescape-logo-gradient</title><path d="M2.2,2.6a.7.7,0,0,0-.7-.7H.2V0H2.5c1.4,0,2,.6,2,2V20a.6.6,0,0,0,.7.7H6.5v1.9H4.2c-1.4,0-2-.6-2-2Zm8,6.4a.7.7,0,0,0-.7-.7H8.2V6.4h2.3c1.4,0,2,.6,2,2V20a.6.6,0,0,0,.7.7h1.3v1.9H12.2c-1.4,0-2-.6-2-2Zm0-9h2.1V2.8H10.2Zm7.9,9a.7.7,0,0,0-.7-.7H16.1V6.4h2.2c1.3,0,2,.6,2,1.8v.7a8.4,8.4,0,0,1-.1,1.2h.1A6.7,6.7,0,0,1,26.7,6c4,0,5.4,2.3,5.4,6.2v7.6a.6.6,0,0,0,.7.7h1.3v1.9H31.8c-1.4,0-2-.6-2-2V12.7c0-2.5-.4-4.8-3.5-4.8a6.2,6.2,0,0,0-5.9,4.5,7.8,7.8,0,0,0-.3,2.2v7.7H17.9V9ZM44,6c4.4,0,6.8,3.4,6.8,7.4a10.4,10.4,0,0,1-.1,1.1H38.3c.1,4.1,2.9,6.4,6.2,6.4a7.2,7.2,0,0,0,4.8-2l1.1,1.6a9,9,0,0,1-6,2.3A8.1,8.1,0,0,1,36,14.4C36.1,9.2,39.7,6,44,6Zm4.5,6.8c-.1-3.3-2.2-5-4.5-5a5.4,5.4,0,0,0-5.5,5ZM54.8,18a6.8,6.8,0,0,0,4.9,2.4c1.5,0,2.8-.7,2.8-2.1,0-2.9-8.8-2.6-8.8-7.8,0-3.1,2.7-4.5,6-4.5S65,6.7,65,9.1v1.5H62.2V9.8c0-1-1.4-1.4-2.4-1.4s-3,.6-3,1.9c0,3.1,8.8,2.4,8.8,7.8,0,2.9-2.6,4.7-6,4.7A8.5,8.5,0,0,1,53.1,20ZM76.7,5.9c2,0,5.8.8,5.8,3.6v1.7H79.7v-.9c0-1.2-1.8-1.7-3-1.7a5.4,5.4,0,0,0-5.5,5.8,5.5,5.5,0,0,0,5.7,5.8,7.4,7.4,0,0,0,5-2.2l1.3,2.2A8.9,8.9,0,0,1,76.6,23,8.2,8.2,0,0,1,68,14.5,8.3,8.3,0,0,1,76.7,5.9Zm18.1,6.5h.7v-.2c0-2.8-1.1-3.9-3.6-3.9-.8,0-2.7.2-2.7,1.2v.9H86.3V9c0-2.7,4-3,5.6-3,5.2,0,6.7,2.8,6.7,6.3v6.9a.6.6,0,0,0,.7.7h1.3v2.7H97.7c-1.4,0-2-.7-2-1.9a5.8,5.8,0,0,1,.1-1h-.1a5.6,5.6,0,0,1-5.2,3.2c-2.8,0-5.5-1.7-5.5-4.9C85.1,12.7,92.1,12.4,94.8,12.4Zm-3.5,8c2.6,0,4.3-2.8,4.3-5.2v-.5h-.8c-2.3,0-6.6.1-6.6,3.1C88.2,19.1,89.2,20.4,91.3,20.4ZM104,9.7a.6.6,0,0,0-.7-.7H102V6.3h2.9c1.4,0,2,.6,2,1.6v.9h.1a5.7,5.7,0,0,1,5.4-2.9c4.4,0,7.1,3.5,7.1,8.5s-3.1,8.5-7.4,8.5a5.7,5.7,0,0,1-5-2.6H107a9.4,9.4,0,0,1,.1,1.4v7.2H104Zm7.6,10.5c2.6,0,4.7-2.1,4.7-5.8s-1.9-5.8-4.6-5.8-4.7,1.7-4.7,5.8S108.6,20.2,111.6,20.2ZM129.9,5.9c4.5,0,7,3.4,7,7.6,0,.4-.1,1.3-.1,1.3H125a5.4,5.4,0,0,0,5.6,5.4,7.2,7.2,0,0,0,4.7-1.9l1.3,2.2a9.4,9.4,0,0,1-6.2,2.4,8.3,8.3,0,0,1-8.6-8.5C121.8,9.2,125.3,5.9,129.9,5.9Zm3.8,6.6c-.1-2.7-1.8-4.1-3.8-4.1a4.7,4.7,0,0,0-4.8,4.1ZM.8,35.7H0v-.8H4.8c.6,0,.8.2.8.8v.9H4.8V36a.3.3,0,0,0-.3-.3H1.7v3.4H5v.8H1.7V44H.8Zm6.3,2.8a.3.3,0,0,0-.3-.3H6.3v-.8h.9c.6,0,.8.2.8.8v4.7a.3.3,0,0,0,.3.3h.5V44H7.9c-.6,0-.8-.2-.8-.8Zm0-3.6H8V36H7.1Zm3.2,3.6a.3.3,0,0,0-.3-.3H9.4v-.8h.9c.5,0,.8.2.8.7v.8h0a2.7,2.7,0,0,1,2.6-1.6c1.6,0,2.2.9,2.2,2.5v3.1a.3.3,0,0,0,.3.3h.5V44h-.9c-.6,0-.8-.2-.8-.8V40.1c0-1-.2-1.9-1.4-1.9A2.6,2.6,0,0,0,11.2,40a2.8,2.8,0,0,0-.1.9V44h-.9V38.5Zm10.1-1.2a2.2,2.2,0,0,1,2.1,1.2h0V36a.3.3,0,0,0-.3-.3h-.5v-.8h.9c.6,0,.8.2.8.8v7.2a.3.3,0,0,0,.3.3h.5V44h-.9c-.5,0-.8-.2-.8-.7v-.4h0a2.3,2.3,0,0,1-2.2,1.3c-1.7,0-2.8-1.4-2.8-3.4S18.7,37.3,20.4,37.3Zm2.2,3.4c0-1.3-.7-2.6-2.1-2.6a2.3,2.3,0,0,0-2.1,2.6c0,1.6.8,2.6,2,2.6S22.6,42.6,22.6,40.7Zm3.1-2.2a.3.3,0,0,0-.3-.3h-.5v-.8h.9c.6,0,.8.2.8.8v4.7a.3.3,0,0,0,.3.3h.5V44h-.9c-.6,0-.8-.2-.8-.8Zm0-3.6h.9V36h-.9Zm3.2,3.6a.3.3,0,0,0-.3-.3h-.5v-.8H29c.5,0,.8.2.8.7v.8h0a2.7,2.7,0,0,1,2.6-1.6c1.6,0,2.2.9,2.2,2.5v3.1a.3.3,0,0,0,.3.3h.5V44h-.9c-.6,0-.8-.2-.8-.8V40.1c0-1-.2-1.9-1.4-1.9A2.6,2.6,0,0,0,29.9,40a2.8,2.8,0,0,0-.1.9V44h-.9ZM39,37.3a2.3,2.3,0,0,1,2.2,1.1h0v-.2c0-.5.2-.7.7-.7h.9v.8h-.5a.3.3,0,0,0-.3.3v5.3c0,2.1-1.5,2.9-3.1,2.9a5,5,0,0,1-2.1-.5l.3-.7a3.8,3.8,0,0,0,1.8.5c1.3,0,2.3-.6,2.3-2V43h0a2.1,2.1,0,0,1-2,1.1,3,3,0,0,1-2.9-3.3C36.2,38.7,37.3,37.3,39,37.3Zm2.1,3.3c0-1.9-.9-2.5-2.1-2.5s-2,.9-2,2.5.8,2.6,2.1,2.6S41.1,42.5,41.1,40.6Zm5.7,2.6H47c.2,0,.4,0,.5-.3l3-8h1l3,8a.5.5,0,0,0,.5.3h.2V44h-.4c-.6,0-.8-.1-1.1-.7l-.8-2.1H49.3l-.8,2.1c-.5.5-.7.7-1.3.7h-.4Zm5.6-2.9-1.2-3.2a4.9,4.9,0,0,1-.3-1.2h0l-.3,1.2-1.2,3.2ZM56.2,36a.3.3,0,0,0-.3-.3h-.5v-.8h.9c.6,0,.8.2.8.8v7.2a.3.3,0,0,0,.3.3h.5V44H57c-.6,0-.8-.2-.8-.8Zm3.3,2.2h-.9v-.7h.9V35.7h.9v1.8H62v.7H60.4v3.3c0,1.5,1,1.7,1.5,1.7h.3V44h-.4a2.1,2.1,0,0,1-2.3-2.4Zm6.7-.9a2.7,2.7,0,0,1,2.7,3v.4h-5a2.5,2.5,0,0,0,2.5,2.6,2.7,2.7,0,0,0,1.9-.8l.4.7a3.6,3.6,0,0,1-2.4.9,3.4,3.4,0,0,1-.1-6.8ZM68,40.1a1.9,1.9,0,0,0-1.8-2,2.2,2.2,0,0,0-2.2,2Zm2.6-1.6a.3.3,0,0,0-.3-.3h-.5v-.8h.9c.5,0,.8.2.8.7V39h0a2.1,2.1,0,0,1,2.1-1.7h.3v.9h-.3a2.1,2.1,0,0,0-1.9,1.7,5.9,5.9,0,0,0-.2,1.3V44h-.9Zm4.8,0a.3.3,0,0,0-.3-.3h-.5v-.8h.9c.5,0,.8.2.8.7v.8h0a2.7,2.7,0,0,1,2.6-1.6c1.6,0,2.2.9,2.2,2.5v3.1a.3.3,0,0,0,.3.3h.5V44H81c-.6,0-.8-.2-.8-.8V40.1c0-1-.2-1.9-1.4-1.9A2.6,2.6,0,0,0,76.4,40a2.8,2.8,0,0,0-.1.9V44h-.9ZM86.6,40H87c0-1.4-.5-1.8-1.7-1.8s-1.3.1-1.3.6V39h-.8v-.6c0-.9,1.5-1.1,2.1-1.1s2.5,1.1,2.5,2.5v3.1a.3.3,0,0,0,.3.3h.5V44h-.9c-.6,0-.8-.2-.8-.8v-.5h0a2.3,2.3,0,0,1-2.2,1.4,2,2,0,0,1-2.2-1.9C82.6,40.1,85.5,40,86.6,40ZM85,43.4A2.3,2.3,0,0,0,87,41v-.3h-.4c-1,0-3.1,0-3.1,1.5S84,43.4,85,43.4Zm5.1-5.2h-.9v-.7h.9V35.7H91v1.8h1.6v.7H91v3.3c0,1.5,1,1.7,1.5,1.7h.3V44h-.4a2.1,2.1,0,0,1-2.3-2.4Zm4.4.3a.3.3,0,0,0-.3-.3h-.5v-.8h.9c.6,0,.8.2.8.8v4.7a.3.3,0,0,0,.3.3h.5V44h-.9c-.6,0-.8-.2-.8-.8Zm-.1-3.6h.9V36h-.9Zm2.8,3.6a.5.5,0,0,0-.5-.3h-.1v-.8H97c.6,0,.8.1,1,.7l1.6,4c.1.3.2.8.2.8h0l.2-.8,1.6-4c.2-.6.4-.7,1-.7h.3v.8h-.1a.5.5,0,0,0-.5.3l-2.1,5.4h-1Zm9.5-1.2a2.7,2.7,0,0,1,2.7,3v.4h-5a2.5,2.5,0,0,0,2.5,2.6,2.7,2.7,0,0,0,1.9-.8l.4.7a3.6,3.6,0,0,1-2.4.9,3.3,3.3,0,0,1-3.4-3.4A3.3,3.3,0,0,1,106.7,37.3Zm1.8,2.8a1.9,1.9,0,0,0-1.8-2,2.2,2.2,0,0,0-2.2,2Zm2.4,2.3a2.6,2.6,0,0,0,2,1c.7,0,1.4-.3,1.4-1s-3.6-1.2-3.6-3.2,1-1.8,2.3-1.8,2,.3,2,1.2v.6h-.8v-.3c0-.5-.7-.7-1.1-.7s-1.4.3-1.4.9,3.6,1.1,3.6,3.3-1,1.8-2.3,1.8a3.2,3.2,0,0,1-2.5-1.1Zm5.7.5h1v1h-1Zm6.4-.7a3.2,3.2,0,0,0,2.3,1.1,1.6,1.6,0,0,0,1.8-1.6c0-2.2-4.5-1.8-4.5-4.6s1.1-2.3,2.8-2.3,2.4.4,2.4,1.6V37h-.9v-.4c0-.5-.7-.9-1.6-.9s-1.9.7-1.9,1.5,4.5,1.6,4.5,4.6a2.5,2.5,0,0,1-2.7,2.5,3.8,3.8,0,0,1-2.9-1.3ZM133.2,40h.4c0-1.4-.5-1.8-1.7-1.8s-1.3.1-1.3.6V39h-.8v-.6c0-.9,1.5-1.1,2.1-1.1s2.5,1.1,2.5,2.5v3.1a.3.3,0,0,0,.3.3h.5V44h-.9c-.6,0-.8-.2-.8-.8v-.5h0a2.3,2.3,0,0,1-2.2,1.4,2,2,0,0,1-2.2-1.9C129.2,40.1,132.1,40,133.2,40Zm-1.6,3.4a2.3,2.3,0,0,0,2-2.4v-.3h-.4c-1,0-3.1,0-3.1,1.5S130.6,43.4,131.6,43.4Zm4.5-4.9a.5.5,0,0,0-.5-.3h-.1v-.8h.3c.6,0,.8.1,1,.7l1.6,4c.1.3.2.8.2.8h0l.2-.8,1.6-4c.2-.6.4-.7,1-.7h.3v.8h-.1a.5.5,0,0,0-.5.3L139,43.9h-1Zm7.1,0a.3.3,0,0,0-.3-.3h-.5v-.8h.9c.6,0,.8.2.8.8v4.7a.3.3,0,0,0,.3.3h.5V44H144c-.6,0-.8-.2-.8-.8Zm0-3.6h.9V36h-.9Zm3.2,3.6a.3.3,0,0,0-.3-.3h-.5v-.8h.9c.5,0,.8.2.8.7v.8h0a2.7,2.7,0,0,1,2.6-1.6c1.6,0,2.2.9,2.2,2.5v3.1a.3.3,0,0,0,.3.3h.5V44H152c-.6,0-.8-.2-.8-.8V40.1c0-1-.2-1.9-1.4-1.9a2.6,2.6,0,0,0-2.4,1.8,2.8,2.8,0,0,0-.1.9V44h-.9V38.5Zm10.1-1.2a2.3,2.3,0,0,1,2.2,1.1h0v-.2c0-.5.2-.7.7-.7h.9v.8h-.5a.3.3,0,0,0-.3.3v5.3c0,2.1-1.5,2.9-3.1,2.9a5,5,0,0,1-2.1-.5l.3-.7a3.8,3.8,0,0,0,1.8.5c1.3,0,2.3-.6,2.3-2V43h0a2.1,2.1,0,0,1-2,1.1,3,3,0,0,1-2.9-3.3C153.7,38.7,154.7,37.3,156.5,37.3Zm2.1,3.3c0-1.9-.9-2.5-2.1-2.5s-2,.9-2,2.5.8,2.6,2.1,2.6S158.6,42.5,158.6,40.6Zm8.8-4.9h-2.2a.3.3,0,0,0-.3.3v.6H164v-1c0-.6.2-.7.7-.7h6.1c.6,0,.7.2.7.7v1h-.8V36a.3.3,0,0,0-.3-.3h-2.2V44h-.9V35.7Zm5.2,2.8a.3.3,0,0,0-.3-.3h-.5v-.8h.9c.6,0,.8.2.8.8v4.7a.3.3,0,0,0,.3.3h.5V44h-.9c-.6,0-.8-.2-.8-.8Zm-.1-3.6h.9V36h-.9Zm3.2,3.6a.3.3,0,0,0-.3-.3h-.5v-.8h.9c.5,0,.8.2.8.7v.8h0a2.5,2.5,0,0,1,2.3-1.6,1.8,1.8,0,0,1,2,1.6h0a2.5,2.5,0,0,1,2.4-1.6c1.6,0,2.2.9,2.2,2.5v3.1a.3.3,0,0,0,.3.3h.5V44h-.9c-.6,0-.8-.2-.8-.8V40.1c0-1.1-.2-1.9-1.4-1.9a2.2,2.2,0,0,0-2,1.8,2.8,2.8,0,0,0-.1.9V44h-.9V40.1c0-1-.1-1.9-1.4-1.9a2.3,2.3,0,0,0-2.1,1.9,2.8,2.8,0,0,0-.1.9v3h-.9Zm14.6-1.2a2.7,2.7,0,0,1,2.7,3v.4h-5a2.5,2.5,0,0,0,2.5,2.6,2.7,2.7,0,0,0,1.9-.8l.4.7a3.6,3.6,0,0,1-2.4.9,3.3,3.3,0,0,1-3.4-3.4A3.3,3.3,0,0,1,190.3,37.3Zm1.9,2.8a1.9,1.9,0,0,0-1.8-2,2.2,2.2,0,0,0-2.2,2Zm2.4,2.8h1v1h-1ZM140.8,6.7h-1.4c-.1,0-.2,0-.2.2v.4h-.5V6.7c0-.3.1-.5.5-.5H143c.3,0,.5.1.5.5v.6H143V6.9a.2.2,0,0,0-.2-.2h-1.4v5.2h-.6V6.7Zm2.8,4.7h.3a.2.2,0,0,0,.2-.2l.4-5h.6l1.5,3.3.3.7h0a2.6,2.6,0,0,1,.3-.7l1.5-3.3h.6l.4,5a.2.2,0,0,0,.2.2h.3v.5h-.5c-.3,0-.5-.1-.5-.5L148.8,8V7.2h0l-.3.8-1.3,2.9h-.5L145.3,8l-.3-.8h0V8l-.3,3.4c0,.3-.1.5-.5.5h-.5v-.5Z" fill="url(#a)"/></svg>